<svg width="200" height="200" viewBox="0 0 200 200" fill="none" xmlns="http://www.w3.org/2000/svg">
<path fill-rule="evenodd" clip-rule="evenodd" d="M92.5101 102.497C92.5194 102.501 93.5883 103.142 93.5967 103.147C94.7046 103.824 94.9544 105.344 94.2918 106.469C93.6339 107.585 92.1243 107.773 91.007 107.134C90.9911 107.13 90.1087 106.601 90.0956 106.592C88.9708 105.925 88.5962 104.462 89.2616 103.332C89.9297 102.199 91.3853 101.828 92.5101 102.497Z" fill="white" stroke="white" stroke-width="0.0450094" stroke-miterlimit="2" stroke-linejoin="round"/>
<path fill-rule="evenodd" clip-rule="evenodd" d="M73.5269 87.9314C73.5363 85.5682 76.6338 84.8553 77.7903 86.5327C78.5153 87.5773 78.696 89.4737 81.2652 93.026C82.1887 94.3073 83.0255 95.5476 84.3348 96.7311C85.2359 97.5465 86.4017 98.3255 87.8135 99.1223C89.9642 100.334 88.6494 104.263 85.7932 103.34C84.6227 102.967 83.3731 102.161 82.2586 101.248C80.8188 100.073 79.6391 98.8008 78.5199 97.402C76.453 94.8198 73.5176 89.6507 73.5269 87.9314Z" fill="white" stroke="white" stroke-width="0.0450094" stroke-miterlimit="2" stroke-linejoin="round"/>
<path fill-rule="evenodd" clip-rule="evenodd" d="M111.163 102.482C111.154 102.487 110.085 103.127 110.077 103.133C108.969 103.809 108.719 105.33 109.382 106.455C110.04 107.571 111.548 107.759 112.666 107.119C112.682 107.116 113.565 106.586 113.578 106.578C114.703 105.91 115.077 104.447 114.412 103.318C113.744 102.185 112.288 101.814 111.163 102.482Z" fill="white" stroke="white" stroke-width="0.0450094" stroke-miterlimit="2" stroke-linejoin="round"/>
<path fill-rule="evenodd" clip-rule="evenodd" d="M129.829 87.5764C129.819 85.2131 126.722 84.5003 125.565 86.1786C124.84 87.2223 124.66 89.1196 122.09 92.6709C121.167 93.9522 120.33 95.1926 119.021 96.376C118.12 97.1923 116.954 97.9705 115.542 98.7672C113.391 99.9796 114.706 103.908 117.563 102.986C118.733 102.612 119.983 101.806 121.097 100.893C122.537 99.7177 123.717 98.4457 124.836 97.047C126.903 94.4657 129.838 89.2966 129.829 87.5764Z" fill="white" stroke="white" stroke-width="0.0450094" stroke-miterlimit="2" stroke-linejoin="round"/>
<path d="M79.5359 104.851C75.4835 105.375 71.9189 107.618 69.6928 111.038C69.2837 111.67 68.543 113.114 68.3679 113.616C68.307 113.79 68.2525 113.842 68.1853 113.799C68.1329 113.769 67.8517 113.578 67.558 113.388C66.4355 112.642 65.1567 112.111 63.7259 111.783C63.0377 111.632 62.7492 111.609 61.4253 111.617C60.1832 111.617 59.7804 111.648 59.1898 111.783C54.6559 112.787 51.3073 116.27 50.4754 120.846C50.3097 121.763 50.3464 124.052 50.5426 124.948C50.6349 125.344 51.4752 128.029 52.4141 130.908C53.3446 133.79 54.103 136.168 54.0789 136.199C54.0663 136.23 53.632 136.328 53.118 136.42C49.8544 137.028 48.3186 137.918 47.4469 139.735C46.8048 141.08 46.744 141.977 47.1751 144.15C47.3252 144.912 47.6734 146.774 47.9462 148.293C49.2575 155.584 50.2551 160.912 50.53 162.008C50.8174 163.192 51.3472 164.189 52.1182 165.003L52.7476 165.671L52.6344 166.043C52.4518 166.62 52.4141 167.768 52.5494 168.354C52.8305 169.533 56.1098 179.742 56.3752 180.252C56.9113 181.268 57.9939 182.127 59.1374 182.424C59.9787 182.652 60.6669 182.606 64.0962 182.121C65.8302 181.869 67.6104 181.617 68.05 181.565L68.8452 181.466L70.5247 186.635C71.4573 189.479 72.4402 192.542 72.7119 193.439C72.9868 194.335 73.2962 195.332 73.4032 195.642C73.8648 196.981 74.446 197.818 75.2044 198.213L75.5842 198.419H102.311C128.469 198.419 129.046 198.419 129.417 198.272C129.621 198.189 129.955 197.969 130.151 197.787C130.787 197.195 131.157 196.382 131.794 194.236C132.173 192.96 135.92 181.369 135.974 181.314C136.017 181.277 139.137 181.746 141.698 182.182C144.181 182.599 144.968 182.652 145.763 182.446C147.24 182.069 148.533 180.813 148.944 179.377C149.079 178.898 150.714 168.363 150.775 167.556C150.797 167.258 150.791 166.834 150.754 166.605L150.692 166.187L151.032 165.914C152.351 164.864 153.342 163.352 153.758 161.762C154.22 159.969 153.782 157.834 152.691 156.587L152.456 156.321L152.669 156.161C153.51 155.545 154.629 154.36 155.327 153.363C157.074 150.855 157.621 147.344 156.749 144.295C156.492 143.383 155.688 141.786 155.083 140.965C154.046 139.568 152.602 138.261 151.145 137.408C150.708 137.15 150.366 136.922 150.381 136.892C150.473 136.738 154.024 125.718 154.137 125.216C154.91 121.947 154.085 118.381 151.934 115.714C150.32 113.707 148.133 112.369 145.484 111.792C144.393 111.547 142.19 111.547 141.092 111.783C139.675 112.095 138.198 112.71 137.146 113.418L136.624 113.769L136.033 112.575C135.171 110.841 134.2 109.556 132.824 108.318C128.743 104.654 122.693 103.794 117.718 106.182C116.173 106.918 114.992 107.763 113.759 109.009C113.099 109.677 112.001 111.093 111.79 111.547C111.744 111.648 111.692 111.722 111.661 111.722C111.63 111.722 111.419 111.472 111.193 111.169C110.009 109.595 105.833 104.708 104.001 104C99.8653 102.413 97.677 106.91 94.5655 109.99C94.2089 110.34 93.762 110.835 93.5574 111.099L93.1934 111.577L93.0801 111.365C92.8472 110.917 92.0363 109.853 91.4006 109.162C88.4161 105.916 83.9283 104.289 79.5359 104.851Z" fill="white"/>
<path fill-rule="evenodd" clip-rule="evenodd" d="M112.459 0.936793C108.356 1.14136 104.382 2.32677 100.989 4.34932C98.9215 5.57984 98.5208 5.86204 97.2703 6.9415C96.0136 8.0346 94.1358 10.0939 93.456 11.1377L93.242 11.4566L93.0091 11.2667C92.878 11.1586 92.4626 10.8334 92.0765 10.545C86.8376 6.52188 79.744 5.57984 73.6176 8.08915C70.6719 9.2903 67.999 11.2971 66.0624 13.7519C65.5998 14.3383 65.5998 14.3383 64.7197 14.6939C58.1411 17.392 52.3504 22.1578 48.3809 28.1573C44.9673 33.3039 42.9909 39.0484 42.4611 45.3584C42.2933 47.2886 42.3699 50.5438 42.6206 52.6188C43.6266 61.0709 47.6854 69.0153 53.9313 74.7693C56.6662 77.2922 59.2321 79.063 62.4873 80.668C66.5765 82.6811 70.5366 83.7984 75.1618 84.24C76.2234 84.3386 76.3577 84.369 76.4805 84.5222C77.7215 86.0653 79.8174 88.2232 81.1885 89.3709C82.2638 90.2762 83.9307 91.492 84.9441 92.1089L85.8767 92.6795L92.0157 98.8049C98.3382 105.121 98.6037 105.357 99.6621 105.829C99.9066 105.936 100.39 106.118 100.754 106.225C101.345 106.406 101.519 106.43 102.616 106.422C103.617 106.422 103.935 106.4 104.412 106.263C105.1 106.072 105.963 105.684 106.569 105.289C106.841 105.108 109.113 102.901 112.686 99.3357L118.365 93.6677L119.538 93.0205C122.914 91.1574 125.983 88.6344 128.775 85.4191C129.934 84.089 131.577 81.7632 132.342 80.3638C132.644 79.8089 132.66 79.7931 133.378 79.406C136.62 77.6667 139.165 75.7575 141.807 73.1128C149.225 65.6468 152.868 55.362 151.825 44.7961C151.014 36.5716 147.341 28.9094 141.45 23.1618C140.383 22.1211 139.104 21.0039 138.156 20.2884L137.74 19.9695L137.492 19.0799C136.567 15.7503 134.764 12.3524 132.524 9.7225C128.405 4.88013 122.81 1.8547 116.549 1.08681C115.61 0.973509 113.39 0.890635 112.459 0.936793Z" fill="white"/>
<path fill-rule="evenodd" clip-rule="evenodd" d="M110.753 6.82696C107.108 7.00868 103.578 8.06169 100.564 9.85834C98.7275 10.9514 98.3716 11.2021 97.2608 12.161C96.1444 13.132 94.4763 14.9613 93.8725 15.8885L93.6824 16.1718L93.4755 16.0031C93.359 15.9071 92.99 15.6182 92.6471 15.362C87.9933 11.7882 81.692 10.9514 76.2499 13.1805C73.6332 14.2475 71.2588 16.0301 69.5385 18.2107C69.1276 18.7316 69.1276 18.7316 68.3457 19.0475C62.502 21.4443 57.358 25.6778 53.8318 31.0072C50.7995 35.5789 49.0439 40.6818 48.5733 46.287C48.4242 48.0017 48.4922 50.8933 48.7149 52.7365C49.6086 60.2446 53.214 67.3017 58.7624 72.413C61.1918 74.6541 63.4711 76.2271 66.3627 77.6529C69.9951 79.4411 73.513 80.4336 77.6216 80.8259C78.5646 80.9135 78.6839 80.9405 78.7929 81.0766C79.8953 82.4474 81.7572 84.3642 82.9752 85.3837C83.9303 86.1879 85.4111 87.2679 86.3113 87.8159L87.1397 88.3228L92.593 93.764C98.2094 99.3748 98.4452 99.5845 99.3854 100.004C99.6026 100.099 100.032 100.26 100.356 100.355C100.88 100.516 101.035 100.538 102.01 100.53C102.899 100.53 103.181 100.511 103.605 100.389C104.216 100.219 104.982 99.8752 105.521 99.5239C105.762 99.3627 107.781 97.403 110.955 94.2355L116 89.2006L117.042 88.6257C120.04 86.9707 122.766 84.7295 125.247 81.8733C126.276 80.6917 127.736 78.6258 128.415 77.3826C128.683 76.8897 128.697 76.8757 129.336 76.5319C132.215 74.9868 134.476 73.2908 136.823 70.9416C143.413 64.3094 146.649 55.1734 145.722 45.7876C145.001 38.4817 141.739 31.6753 136.506 26.5696C135.558 25.6452 134.422 24.6527 133.579 24.0172L133.21 23.7339L132.99 22.9437C132.169 19.9859 130.567 16.9676 128.577 14.6314C124.918 10.3299 119.948 7.64235 114.386 6.96022C113.552 6.85958 111.58 6.78596 110.753 6.82696Z" fill="#FFE69D"/>
<path d="M110.753 6.82696C107.108 7.00868 103.578 8.06169 100.564 9.85834C98.7275 10.9514 98.3716 11.2021 97.2608 12.161C96.1444 13.132 94.4763 14.9613 93.8725 15.8885L93.6824 16.1718L93.4755 16.0031C93.359 15.9071 92.99 15.6182 92.6471 15.362C87.9933 11.7882 81.692 10.9514 76.2499 13.1805C73.6332 14.2475 71.2588 16.0301 69.5385 18.2107C69.1276 18.7316 69.1276 18.7316 68.3457 19.0475C62.502 21.4443 57.358 25.6778 53.8318 31.0072C50.7995 35.5789 49.0439 40.6818 48.5733 46.287C48.4242 48.0017 48.4922 50.8933 48.7149 52.7365C49.6086 60.2446 53.214 67.3017 58.7624 72.413C61.1918 74.6541 63.4711 76.2271 66.3627 77.6529C69.9951 79.4411 73.513 80.4336 77.6216 80.8259C78.5646 80.9135 78.6839 80.9405 78.7929 81.0766C79.8953 82.4474 81.7572 84.3642 82.9752 85.3837C83.9303 86.1879 85.4111 87.2679 86.3113 87.8159L87.1397 88.3228L92.593 93.764C98.2094 99.3748 98.4452 99.5845 99.3854 100.004C99.6026 100.099 100.032 100.26 100.356 100.355C100.88 100.516 101.035 100.538 102.01 100.53C102.899 100.53 103.181 100.511 103.605 100.389C104.216 100.219 104.982 99.8752 105.521 99.5239C105.762 99.3627 107.781 97.403 110.955 94.2355L116 89.2006L117.042 88.6257C120.04 86.9707 122.766 84.7295 125.247 81.8733C126.276 80.6917 127.736 78.6258 128.415 77.3826C128.683 76.8897 128.697 76.8757 129.336 76.5319C132.215 74.9868 134.476 73.2908 136.823 70.9416C143.413 64.3094 146.649 55.1734 145.722 45.7876C145.001 38.4817 141.739 31.6753 136.506 26.5696C135.558 25.6452 134.422 24.6527 133.579 24.0172L133.21 23.7339L132.99 22.9437C132.169 19.9859 130.567 16.9676 128.577 14.6314C124.918 10.3299 119.948 7.64235 114.386 6.96022C113.552 6.85958 111.58 6.78596 110.753 6.82696ZM114.117 11.8097C117.055 12.2486 119.711 13.3361 121.992 15.0507C125.401 17.6031 127.629 21.0678 128.618 25.3554C128.865 26.441 129.053 26.7056 130.224 27.5695C133.191 29.778 135.631 32.4711 137.413 35.5109C137.859 36.2657 138.666 37.8872 139.022 38.7249C140.105 41.3034 140.758 44.0589 140.992 47.0633C141.079 48.1704 141.04 50.7032 140.918 51.7226C140.212 57.7742 137.731 63.0412 133.588 67.3156C132.754 68.172 131.314 69.4888 131.268 69.4338C131.254 69.4207 131.281 69.1309 131.322 68.7871C131.435 67.7676 131.227 67.078 130.621 66.5114C130.232 66.1462 129.887 65.9719 129.384 65.8759C128.341 65.6802 127.271 66.2552 126.828 67.2392C126.74 67.4433 126.627 67.9158 126.559 68.3547C126.262 70.4616 124.749 74.2562 123.412 76.2681C121.502 79.1383 119.147 81.5015 116.302 83.4053C113.061 85.5729 109.617 86.8635 105.507 87.4506C104.486 87.5922 101.437 87.6528 100.287 87.5512C94.5649 87.0331 89.4657 84.7901 85.2704 80.9349C82.6127 78.5037 80.474 75.1536 79.5916 72.0673C79.3446 71.1978 79.2691 70.8325 79.1415 69.8531C79.0213 68.9082 78.7929 68.3817 78.3205 67.9624C77.8909 67.585 77.4809 67.4163 76.9152 67.3753C75.7308 67.2877 74.7225 68.0164 74.4271 69.1719C74.3395 69.5372 74.3339 69.6984 74.3992 70.347C74.5548 71.8594 74.9648 73.534 75.5435 75.012C75.6926 75.3847 75.7988 75.695 75.7932 75.7006C75.7849 75.709 75.5025 75.6606 75.1736 75.5925C66.7457 73.8583 59.738 68.3948 56.0124 60.6695C55.0507 58.6716 54.4376 56.916 53.967 54.8295C52.5002 48.326 53.4889 41.3854 56.7039 35.5845C57.3711 34.3824 58.4334 32.7954 59.3066 31.7023C60.2357 30.5328 62.2671 28.4939 63.4366 27.5639C64.3573 26.8203 65.5091 25.9965 65.5557 26.0431C65.5688 26.0571 65.5361 26.4894 65.4746 27.0085C65.3815 27.7987 65.3815 28.1174 65.4411 28.9328C65.4821 29.4742 65.5632 30.0688 65.6228 30.2495C65.8707 31.0072 66.5249 31.6008 67.3319 31.8114C68.3811 32.0732 69.5385 31.5271 70.0278 30.5198C70.1908 30.1974 70.1964 30.1293 70.1964 28.7641C70.2039 27.6515 70.2309 27.2256 70.3241 26.7737C70.6605 25.1923 71.4405 23.6333 72.6575 22.1143C72.8802 21.8366 73.2232 21.3921 73.4188 21.134C73.6136 20.8712 74.0646 20.3857 74.4131 20.0539C77.548 17.0766 81.9203 16.0571 86.0634 17.3254C87.9598 17.906 89.8757 19.1081 91.1281 20.4929L91.403 20.7976L91.2418 21.3371C90.8514 22.6408 90.6156 24.2679 90.6091 25.6918C90.6091 28.4613 91.2828 31.1022 92.7207 33.9919C93.3944 35.3357 94.0598 35.8408 95.1491 35.8482C95.5927 35.8482 95.7549 35.8212 96.0782 35.6712C96.7967 35.3357 97.1927 34.8893 97.4099 34.1746C97.6521 33.3899 97.5897 33.0657 96.9104 31.6473C95.7344 29.1965 95.3318 27.4875 95.4054 25.3554C95.4921 23.1533 96.1174 21.3026 97.462 19.2982C99.1655 16.7719 101.45 14.7674 104.162 13.4377C104.719 13.1674 105.474 12.8291 105.843 12.6931C107.047 12.2411 108.769 11.8563 110.148 11.7146C110.976 11.6326 113.296 11.6876 114.117 11.8097Z" fill="#3EAF7C"/>
<path fill-rule="evenodd" clip-rule="evenodd" d="M114.028 53.3087C113.289 53.5053 112.77 53.8156 112.193 54.3906C111.346 55.2274 110.982 56.1192 110.982 57.3269C110.976 58.7667 111.655 60.0088 112.872 60.7972C113.476 61.1895 114.001 61.3526 114.802 61.3917C115.676 61.4402 116.174 61.3451 116.894 61.0013C117.554 60.6826 118.299 59.9874 118.636 59.3873C119.551 57.7528 119.282 55.6999 117.997 54.4046C117.217 53.6274 116.343 53.249 115.225 53.2024C114.668 53.181 114.418 53.2025 114.028 53.3087Z" fill="#3EAF7C"/>
<path fill-rule="evenodd" clip-rule="evenodd" d="M84.099 53.4727C82.9826 53.7485 81.9063 54.6263 81.4087 55.6728C81.0863 56.354 80.9912 56.7743 80.9912 57.5179C80.9912 58.6166 81.3882 59.582 82.1617 60.3667C82.7273 60.9398 83.3246 61.2911 84.0506 61.4812C85.4847 61.8521 86.9496 61.4467 87.9933 60.4077C89.0286 59.3668 89.4247 57.8888 89.0631 56.4575C88.873 55.7073 88.5636 55.1799 87.9868 54.5872C87.5824 54.1735 87.368 54.0122 86.9114 53.797C86.5936 53.647 86.178 53.4923 85.9823 53.4513C85.5117 53.3581 84.55 53.3637 84.099 53.4727Z" fill="#3EAF7C"/>
<path fill-rule="evenodd" clip-rule="evenodd" d="M89.6008 66.5962C89.6008 66.8059 89.9242 68.0686 90.145 68.7386C91.4841 72.6944 94.5304 75.6736 98.1954 76.598C99.7573 76.9903 101.499 76.9903 103.086 76.598C106.537 75.7332 109.501 72.9851 110.901 69.3462C111.258 68.4274 111.655 67.0016 111.661 66.6233C111.661 66.5627 109.409 66.544 100.63 66.544C94.5649 66.544 89.6008 66.5711 89.6008 66.5962Z" fill="#3EAF7C"/>
<path fill-rule="evenodd" clip-rule="evenodd" d="M82.048 110.07C78.4481 110.536 75.2817 112.528 73.3042 115.566C72.9408 116.127 72.2829 117.41 72.1273 117.856C72.0732 118.01 72.0248 118.057 71.9651 118.019C71.9185 117.992 71.6688 117.822 71.4079 117.653C70.4108 116.991 69.2748 116.519 68.0037 116.228C67.3924 116.093 67.1362 116.073 65.9601 116.08C64.8568 116.08 64.499 116.107 63.9743 116.228C59.9468 117.119 56.9722 120.213 56.2333 124.278C56.086 125.094 56.1187 127.127 56.2929 127.923C56.3749 128.274 57.1214 130.66 57.9554 133.217C58.7819 135.776 59.4557 137.889 59.4343 137.917C59.4231 137.944 59.0373 138.032 58.5807 138.113C55.6816 138.653 54.3174 139.443 53.543 141.057C52.9727 142.253 52.9186 143.05 53.3016 144.98C53.4349 145.656 53.7442 147.31 53.9865 148.66C55.1514 155.137 56.0376 159.869 56.2817 160.843C56.5371 161.895 57.0077 162.78 57.6926 163.503L58.2517 164.097L58.1511 164.428C57.9889 164.94 57.9554 165.96 58.0756 166.481C58.3253 167.527 61.2384 176.596 61.4741 177.049C61.9503 177.952 62.912 178.715 63.9277 178.979C64.6751 179.181 65.2864 179.14 68.3327 178.71C69.8731 178.486 71.4545 178.262 71.8449 178.216L72.5513 178.128L74.0432 182.719C74.8716 185.246 75.7448 187.967 75.9861 188.764C76.2303 189.559 76.5052 190.445 76.6002 190.721C77.0103 191.91 77.5265 192.653 78.2003 193.005L78.5376 193.187H102.279C125.516 193.187 126.029 193.187 126.358 193.057C126.539 192.983 126.836 192.787 127.01 192.626C127.575 192.1 127.903 191.378 128.469 189.472C128.806 188.338 132.134 178.041 132.183 177.993C132.221 177.959 134.992 178.377 137.267 178.764C139.473 179.135 140.172 179.181 140.878 178.999C142.19 178.663 143.339 177.548 143.703 176.272C143.824 175.847 145.276 166.488 145.33 165.772C145.35 165.507 145.344 165.13 145.312 164.926L145.257 164.555L145.559 164.313C146.73 163.38 147.611 162.037 147.98 160.625C148.391 159.032 148.001 157.135 147.032 156.028L146.823 155.791L147.012 155.65C147.76 155.102 148.754 154.05 149.374 153.163C150.925 150.936 151.412 147.817 150.637 145.108C150.409 144.298 149.694 142.88 149.157 142.15C148.236 140.909 146.953 139.748 145.659 138.991C145.271 138.761 144.967 138.559 144.98 138.532C145.062 138.396 148.216 128.607 148.317 128.16C149.004 125.257 148.27 122.089 146.36 119.719C144.926 117.937 142.983 116.749 140.63 116.236C139.661 116.018 137.704 116.018 136.728 116.228C135.47 116.505 134.158 117.051 133.224 117.68L132.759 117.992L132.235 116.931C131.469 115.391 130.607 114.249 129.384 113.15C125.759 109.895 120.385 109.131 115.965 111.252C114.593 111.907 113.544 112.657 112.448 113.764C111.862 114.357 110.887 115.615 110.699 116.018C110.658 116.107 110.613 116.174 110.585 116.174C110.558 116.174 110.37 115.952 110.169 115.683C109.118 114.284 107.539 113.096 105.911 112.467C102.238 111.057 98.1628 111.899 95.3989 114.635C95.0821 114.946 94.6851 115.385 94.5034 115.62L94.18 116.045L94.0794 115.857C93.8725 115.459 93.1521 114.513 92.5874 113.9C89.9363 111.016 85.9497 109.57 82.048 110.07Z" fill="white"/>
<path d="M82.048 110.07C78.4481 110.536 75.2817 112.528 73.3042 115.566C72.9408 116.127 72.2829 117.41 72.1273 117.856C72.0732 118.01 72.0248 118.057 71.9651 118.019C71.9185 117.992 71.6688 117.822 71.4079 117.653C70.4108 116.991 69.2748 116.519 68.0037 116.228C67.3924 116.093 67.1362 116.073 65.9601 116.08C64.8568 116.08 64.499 116.107 63.9743 116.228C59.9468 117.119 56.9722 120.213 56.2333 124.278C56.086 125.094 56.1187 127.127 56.2929 127.923C56.3749 128.274 57.1214 130.66 57.9554 133.217C58.7819 135.776 59.4557 137.889 59.4343 137.917C59.4231 137.944 59.0373 138.032 58.5807 138.113C55.6816 138.653 54.3174 139.443 53.543 141.057C52.9727 142.253 52.9186 143.05 53.3016 144.98C53.4349 145.656 53.7442 147.31 53.9865 148.66C55.1514 155.137 56.0376 159.869 56.2817 160.843C56.5371 161.895 57.0077 162.78 57.6926 163.503L58.2517 164.097L58.1511 164.428C57.9889 164.94 57.9554 165.96 58.0756 166.481C58.3253 167.527 61.2384 176.596 61.4741 177.049C61.9503 177.952 62.912 178.715 63.9277 178.979C64.6751 179.181 65.2864 179.14 68.3327 178.71C69.8731 178.486 71.4545 178.262 71.8449 178.216L72.5513 178.128L74.0432 182.719C74.8716 185.246 75.7448 187.967 75.9861 188.764C76.2303 189.559 76.5052 190.445 76.6002 190.721C77.0103 191.91 77.5265 192.653 78.2003 193.005L78.5376 193.187H102.279C125.516 193.187 126.029 193.187 126.358 193.057C126.539 192.983 126.836 192.787 127.01 192.626C127.575 192.1 127.903 191.378 128.469 189.472C128.806 188.338 132.134 178.041 132.183 177.993C132.221 177.959 134.992 178.377 137.267 178.764C139.473 179.135 140.172 179.181 140.878 178.999C142.19 178.663 143.339 177.548 143.703 176.272C143.824 175.847 145.276 166.488 145.33 165.772C145.35 165.507 145.344 165.13 145.312 164.926L145.257 164.555L145.559 164.313C146.73 163.38 147.611 162.037 147.98 160.625C148.391 159.032 148.001 157.135 147.032 156.028L146.823 155.791L147.012 155.65C147.76 155.102 148.754 154.05 149.374 153.163C150.925 150.936 151.412 147.817 150.637 145.108C150.409 144.298 149.694 142.88 149.157 142.15C148.236 140.909 146.953 139.748 145.659 138.991C145.271 138.761 144.967 138.559 144.98 138.532C145.062 138.396 148.216 128.607 148.317 128.16C149.004 125.257 148.27 122.089 146.36 119.719C144.926 117.937 142.983 116.749 140.63 116.236C139.661 116.018 137.704 116.018 136.728 116.228C135.47 116.505 134.158 117.051 133.224 117.68L132.759 117.992L132.235 116.931C131.469 115.391 130.607 114.249 129.384 113.15C125.759 109.895 120.385 109.131 115.965 111.252C114.593 111.907 113.544 112.657 112.448 113.764C111.862 114.357 110.887 115.615 110.699 116.018C110.658 116.107 110.613 116.174 110.585 116.174C110.558 116.174 110.37 115.952 110.169 115.683C109.118 114.284 107.539 113.096 105.911 112.467C102.238 111.057 98.1628 111.899 95.3989 114.635C95.0821 114.946 94.6851 115.385 94.5034 115.62L94.18 116.045L94.0794 115.857C93.8725 115.459 93.1521 114.513 92.5874 113.9C89.9363 111.016 85.9497 109.57 82.048 110.07ZM84.838 114.925C87.7566 115.432 90.1935 117.708 90.8458 120.524C90.9324 120.9 92.4244 133.197 92.4244 133.541C92.4244 133.636 92.3722 133.664 92.169 133.664C91.7068 133.664 90.3463 133.865 89.8831 134.008C89.2103 134.217 88.6177 134.574 88.066 135.108C87.5013 135.656 87.1528 136.188 86.9114 136.884L86.7353 137.376L86.2703 137.033C85.0337 136.128 83.4877 135.452 81.9389 135.142C81.4152 135.04 80.9176 134.994 80.0836 134.981L78.9402 134.967L77.575 129.266L76.2033 123.569L76.1958 122.353C76.1818 121.265 76.2033 121.07 76.3449 120.529C77.0373 117.89 78.9747 115.871 81.5289 115.121C81.8467 115.026 82.2707 114.925 82.472 114.898C83.0833 114.805 84.2323 114.816 84.838 114.925ZM122.912 115.094C125.605 115.702 127.756 117.829 128.482 120.597C128.624 121.129 128.643 121.353 128.643 122.386L128.637 123.569L127.333 129.038C126.618 132.042 126.021 134.52 126.007 134.533C125.994 134.555 125.436 134.514 124.757 134.454C122.651 134.258 121.695 134.318 120.695 134.724C119.94 135.027 119.133 135.635 118.669 136.248L118.527 136.445L118.206 136.174C116.927 135.101 115.245 134.304 113.31 133.86C112.832 133.745 112.428 133.642 112.414 133.636C112.394 133.609 113.773 121.893 113.881 121.157C114.337 118.078 116.913 115.505 120.049 114.993C120.822 114.864 122.119 114.911 122.912 115.094ZM109.745 137.243C111.109 137.308 111.715 137.39 112.704 137.647C114.008 137.971 114.977 138.464 115.965 139.295C118.011 141.011 118.521 144.157 117.217 146.939C116.397 148.688 115.058 150.031 113.207 150.977C112.031 151.571 110.989 151.902 109.495 152.131C109.186 152.179 109.199 152.124 109.112 154.036C109.031 155.818 108.931 156.088 108.284 156.427C107.949 156.601 106.488 156.615 105.958 156.454C105.567 156.331 105.184 156.034 105.023 155.718C104.787 155.257 104.847 153.954 105.575 144.129C105.703 142.401 105.857 140.275 105.911 139.402C105.971 138.532 106.053 137.729 106.091 137.627C106.186 137.377 106.429 137.222 106.812 137.161C107.115 137.115 107.477 137.126 109.745 137.243ZM97.0325 137.579C98.7685 137.856 100.154 138.519 101.203 139.571C101.896 140.266 102.374 141.131 102.689 142.278C102.831 142.807 102.89 144.372 102.79 144.98C102.602 146.076 102.165 147.188 101.553 148.134C100.301 150.064 98.1162 151.544 95.5266 152.199C95.1827 152.286 94.8864 152.368 94.8724 152.381C94.8593 152.395 94.8808 153.131 94.9208 154.014C94.9945 155.886 94.9674 156.042 94.5518 156.459C94.18 156.838 93.8781 156.912 92.7617 156.92C91.9482 156.925 91.827 156.912 91.5708 156.778C91.2017 156.574 90.9194 156.216 90.8243 155.832C90.7097 155.338 90.6827 154.379 90.6091 148.957C90.5765 146.209 90.528 142.652 90.501 141.051L90.4618 138.14L90.6426 137.93C90.7507 137.802 90.9324 137.688 91.1011 137.641C91.43 137.546 94.6441 137.398 95.5871 137.431C95.9375 137.445 96.5889 137.513 97.0325 137.579ZM124.374 138.254C126.746 138.478 131.61 139.045 132.156 139.168C132.558 139.255 132.754 140.031 132.639 141.057C132.485 142.441 131.974 143.434 131.449 143.353C131.349 143.339 130.998 143.286 130.662 143.245C130.333 143.204 129.586 143.082 129.014 142.976C126.539 142.516 125.181 142.278 125.146 142.314C125.132 142.333 124.977 143.224 124.803 144.293C124.589 145.648 124.515 146.255 124.567 146.283C124.608 146.31 125.664 146.459 126.909 146.621C128.159 146.784 129.262 146.953 129.363 147.006C129.64 147.147 129.773 147.471 129.808 148.066C129.855 148.889 129.618 149.87 129.222 150.443C129.053 150.693 129.014 150.713 128.697 150.734C128.36 150.754 126.27 150.424 124.757 150.112C124.197 150.004 123.95 149.976 123.937 150.031C123.861 150.261 123.499 153.299 123.499 153.665C123.499 153.847 123.505 153.853 123.888 153.853C125.159 153.853 129.645 154.401 130.259 154.63C130.406 154.684 130.567 154.799 130.621 154.881C130.748 155.089 130.729 155.609 130.561 156.454C130.324 157.634 130.01 158.384 129.645 158.62C129.431 158.763 129.102 158.728 127.635 158.411C126.129 158.086 124.621 157.871 122.988 157.735C122.247 157.675 121.399 157.601 121.097 157.566C120.089 157.452 119.437 156.986 119.215 156.216C119.026 155.555 119.114 154.583 119.894 148.91C120.135 147.183 120.445 145.067 120.573 144.216C120.902 142.123 121.535 138.884 121.657 138.653C121.796 138.369 122.268 138.159 122.793 138.127C122.874 138.127 123.579 138.181 124.374 138.254ZM81.3472 138.931C84.5827 139.645 87.2459 142.679 88.0203 146.533C88.544 149.107 88.3027 151.517 87.314 153.624C85.9413 156.554 83.5884 158.181 80.7219 158.174C78.7249 158.168 76.9963 157.364 75.3963 155.682C73.9295 154.15 73.0489 152.348 72.6035 149.971C72.4627 149.194 72.4161 147.392 72.5103 146.588C72.9734 142.813 75.3478 139.734 78.355 138.998C78.6383 138.931 78.9337 138.856 79.0073 138.843C79.4042 138.754 80.7899 138.808 81.3472 138.931ZM139.641 140.847C141.651 141.354 142.095 141.509 143.138 142.043C144.523 142.752 145.486 143.595 146.246 144.764C147.119 146.128 147.368 147.662 146.971 149.222C146.542 150.909 145.23 152.422 143.394 153.354C142.747 153.679 141.201 154.218 140.704 154.292C140.522 154.319 140.38 154.352 140.38 154.36C140.38 154.393 140.81 155.143 141 155.44C141.53 156.284 142.733 157.547 143.54 158.108C143.777 158.275 144.045 158.52 144.133 158.648C144.274 158.856 144.288 158.937 144.261 159.335C144.187 160.478 143.065 161.685 142.082 161.685C141.516 161.685 140.636 161.153 139.715 160.248C138.908 159.458 138.202 158.411 137.24 156.568C136.998 156.108 136.789 155.745 136.775 155.759C136.769 155.772 136.593 156.454 136.392 157.277C135.989 158.964 135.887 159.166 135.376 159.425C134.974 159.627 134.737 159.632 133.91 159.464C133.137 159.308 132.672 159.079 132.349 158.708C131.798 158.059 131.859 157.702 133.58 151.463C134.099 149.605 134.645 147.594 134.797 147C135.403 144.655 136.359 141.111 136.452 140.834C136.514 140.678 136.62 140.504 136.701 140.443C136.957 140.261 137.751 140.368 139.641 140.847ZM64.8568 141.463C65.6368 141.597 66.1745 141.78 66.988 142.185C68.4678 142.921 69.4845 144.257 69.9737 146.114C70.1769 146.864 70.1908 148.559 70.0007 149.363C69.7184 150.598 69.2692 151.612 68.5629 152.597C68.0438 153.313 66.8408 154.467 66.0198 155.014C65.401 155.434 64.2707 156.034 63.7805 156.203C63.6044 156.263 63.5718 156.304 63.6044 156.432C63.8001 157.318 64.2436 159.545 64.2436 159.673C64.2436 159.863 64.0088 160.383 63.8541 160.559C63.5587 160.889 62.461 161.227 61.654 161.241C61.2244 161.246 61.0641 161.219 60.847 161.099C60.2953 160.807 60.121 160.451 59.8443 159.114C59.6504 158.147 58.4604 151.726 57.8547 148.349C57.6264 147.087 57.3226 145.433 57.1754 144.669C57.0347 143.914 56.9126 143.191 56.9126 143.069C56.9126 142.745 57.1819 142.475 57.673 142.314C58.1567 142.15 60.7734 141.591 61.654 141.463C62.5094 141.341 64.17 141.341 64.8568 141.463ZM104.249 160.944H105.944V164.373C105.944 168.217 105.925 168.047 106.442 168.465C106.637 168.62 106.771 168.674 107.074 168.694C107.578 168.729 107.955 168.552 108.21 168.154L108.398 167.871L108.42 164.474L108.439 161.078H108.925C109.542 161.078 111.97 161.2 112.522 161.254L112.939 161.295V169.964L113.106 170.302C113.31 170.7 113.639 170.943 114.042 170.984C114.58 171.044 115.058 170.795 115.293 170.322C115.421 170.073 115.427 169.91 115.427 165.772V161.483H115.717C115.978 161.483 116.745 161.558 118.804 161.761L119.592 161.841L119.611 164.86L119.63 167.871L119.82 168.154C120.344 168.959 121.568 168.871 121.959 168.007C122.073 167.75 122.087 167.519 122.087 164.913V162.105L122.342 162.138C122.477 162.16 123.331 162.266 124.238 162.38L125.887 162.599L125.953 170.025L126.135 170.329C126.618 171.161 127.811 171.161 128.273 170.329L128.442 170.025L128.477 166.508L128.509 162.996L130.272 163.28C131.232 163.435 132.142 163.59 132.289 163.624L132.544 163.686L132.58 165.84C132.612 167.92 132.618 168.007 132.759 168.235C133.183 168.918 134.28 168.98 134.764 168.344C135.019 168.007 135.06 167.635 135.066 165.845V164.163L135.376 164.212C135.862 164.272 141.234 165.447 141.309 165.507C141.329 165.521 139.943 174.672 139.875 174.961C139.843 175.103 139.829 175.097 137.913 174.772C128.912 173.252 119.557 172.349 109.946 172.078C106.583 171.984 97.6978 172.038 94.5788 172.18C85.2219 172.598 76.0616 173.47 67.001 174.813C65.9117 174.975 65.0115 175.097 64.9985 175.089C64.936 175.035 62.0174 165.657 62.0509 165.622C62.1124 165.562 66.4568 164.555 68.1584 164.212L68.3401 164.177L68.3811 167.797L68.5629 168.113C68.9598 168.783 69.8861 168.918 70.4592 168.385C70.8217 168.04 70.8348 167.947 70.8348 165.738C70.8348 164.158 70.8562 163.697 70.9224 163.678C71.0901 163.61 74.4998 163.05 74.5548 163.084C74.5818 163.097 74.6032 164.67 74.6032 166.581C74.6032 168.877 74.6284 170.114 74.6759 170.242C74.8316 170.654 75.3478 171.005 75.8119 171.005C76.1026 171.005 76.5322 170.809 76.7335 170.593C77.0569 170.234 77.0569 170.242 77.0764 166.325C77.0969 162.901 77.1035 162.631 77.2116 162.631C77.2712 162.626 78.1677 162.511 79.189 162.375L81.0509 162.119L81.0723 164.953L81.0919 167.797L81.2736 168.113C81.7787 168.972 83.1233 168.871 83.4737 167.947C83.5203 167.824 83.5473 166.73 83.5473 164.82C83.5473 162.531 83.5669 161.875 83.6349 161.854C83.675 161.841 84.3543 161.767 85.1287 161.693C85.9087 161.612 86.7017 161.538 86.8974 161.517L87.2459 161.483V165.649C87.2459 168.473 87.273 169.91 87.3214 170.093C87.4277 170.498 87.8917 170.915 88.2887 170.978C88.8599 171.058 89.351 170.815 89.6008 170.322C89.7285 170.073 89.735 169.91 89.735 165.711C89.735 163.312 89.7555 161.341 89.789 161.328C89.816 161.309 90.4413 161.26 91.1803 161.219C91.9211 161.18 92.7747 161.132 93.0841 161.112L93.6358 161.078V164.401C93.6358 167.649 93.6358 167.729 93.7774 168.02C93.9918 168.452 94.3561 168.674 94.8808 168.674C95.3588 168.674 95.6542 168.513 95.9291 168.113L96.0903 167.871L96.1118 164.447L96.1304 161.025L96.2795 160.985C96.3587 160.963 97.1331 160.944 97.9886 160.944H99.5541L99.5681 165.589L99.5886 170.242L99.7824 170.491C100.334 171.221 101.398 171.134 101.874 170.322C102.002 170.1 102.01 169.951 102.029 165.474L102.051 160.856L102.298 160.903C102.434 160.922 103.314 160.944 104.249 160.944ZM113.188 176.182C114.682 176.245 115.933 176.318 115.973 176.345C116.032 176.379 115.758 177.635 115.025 180.708C114.465 183.077 113.9 185.503 113.773 186.089C113.511 187.345 113.302 188.013 113.161 188.068C112.832 188.196 107.181 187.209 106.335 186.879C106.154 186.811 106.145 186.792 106.145 186.299C106.145 186.021 106.206 185.401 106.281 184.928C106.415 184.131 107.357 176.352 107.357 176.103C107.357 175.994 107.477 175.989 108.925 176.03C109.778 176.048 111.702 176.123 113.188 176.182ZM97.4965 176.318C97.5161 176.46 97.7258 178.121 97.9476 180.018C98.3716 183.543 98.4918 185.326 98.3771 186.367C98.3371 186.745 98.3101 186.819 98.1824 186.874C98.1022 186.899 97.1797 187.055 96.1444 187.204C95.1025 187.359 93.9247 187.542 93.5221 187.616C92.142 187.872 91.4627 187.959 91.4161 187.886C91.389 187.845 91.2754 187.277 91.1551 186.616C91.0331 185.961 90.4618 183.423 89.8831 180.985C89.311 178.54 88.8544 176.528 88.873 176.507C88.9354 176.441 95.0625 176.116 96.9458 176.082L97.4565 176.068L97.4965 176.318Z" fill="#3EAF7C"/>
<path fill-rule="evenodd" clip-rule="evenodd" d="M109.617 141.705C109.604 141.834 109.549 142.995 109.509 144.297C109.468 145.593 109.422 146.882 109.395 147.147L109.355 147.64H109.596C110.289 147.64 111.373 147.316 112.058 146.904C113.444 146.067 114.069 144.663 113.604 143.42C113.403 142.873 112.851 142.3 112.24 142.002C111.614 141.698 111.104 141.569 110.302 141.515L109.65 141.474L109.617 141.705Z" fill="#3EAF7C"/>
<path fill-rule="evenodd" clip-rule="evenodd" d="M94.5975 141.679C94.3962 141.706 94.3757 141.726 94.3757 141.942C94.3757 142.178 94.5378 145.629 94.617 147.088L94.6581 147.851L94.9078 147.804C96.8722 147.472 98.4042 146.251 98.6875 144.792C98.9502 143.44 98.0622 142.219 96.5218 141.794C96.1444 141.693 94.9749 141.619 94.5975 141.679Z" fill="#3EAF7C"/>
<path fill-rule="evenodd" clip-rule="evenodd" d="M79.2626 142.612C77.8098 143.002 76.6739 144.548 76.3179 146.623C76.0216 148.296 76.3095 150.18 77.0969 151.693C78.5432 154.468 81.1534 155.286 82.936 153.516C84.509 151.957 85.0262 149.054 84.1801 146.467C83.306 143.779 81.1599 142.097 79.2626 142.612Z" fill="#3EAF7C"/>
<path fill-rule="evenodd" clip-rule="evenodd" d="M139.203 145.29C139.183 145.378 138.908 146.601 138.598 148.011C138.283 149.423 138.006 150.625 137.986 150.685C137.965 150.767 138.006 150.813 138.128 150.84C138.457 150.922 139.681 150.889 140.138 150.786C141.261 150.523 142.203 149.848 142.614 149.003C142.809 148.613 142.836 148.49 142.836 148.011C142.836 147.558 142.801 147.411 142.647 147.087C142.203 146.175 140.973 145.432 139.492 145.175C139.271 145.142 139.237 145.156 139.203 145.29Z" fill="#3EAF7C"/>
<path fill-rule="evenodd" clip-rule="evenodd" d="M62.6967 145.59C62.5691 145.604 62.2001 145.672 61.8711 145.732C61.3986 145.819 61.2924 145.868 61.3194 145.948C61.352 146.056 62.2457 150.156 62.4684 151.214C62.5365 151.525 62.6231 151.789 62.6697 151.808C62.8058 151.857 63.7675 151.437 64.2511 151.121C64.8838 150.696 65.4607 150.053 65.77 149.42C66.0198 148.913 66.0254 148.886 66.0254 148.155C66.0254 147.495 66.0058 147.367 65.8595 147.07C65.5361 146.407 64.8084 145.86 64.0358 145.691C63.6528 145.611 62.9931 145.563 62.6967 145.59Z" fill="#3EAF7C"/>
<path fill-rule="evenodd" clip-rule="evenodd" d="M92.5101 102.497C92.5194 102.501 93.5883 103.142 93.5967 103.147C94.7046 103.824 94.9544 105.344 94.2918 106.469C93.6339 107.585 92.1243 107.773 91.007 107.134C90.9911 107.13 90.1087 106.601 90.0956 106.592C88.9708 105.925 88.5962 104.462 89.2616 103.332C89.9297 102.199 91.3853 101.828 92.5101 102.497Z" fill="#9EE5C5"/>
<path fill-rule="evenodd" clip-rule="evenodd" d="M73.5269 87.9314C73.5363 85.5682 76.6338 84.8553 77.7903 86.5327C78.5153 87.5773 78.696 89.4737 81.2652 93.026C82.1887 94.3073 83.0255 95.5476 84.3348 96.7311C85.2359 97.5465 86.4017 98.3255 87.8135 99.1223C89.9642 100.334 88.6494 104.263 85.7932 103.34C84.6227 102.967 83.3731 102.161 82.2586 101.248C80.8188 100.073 79.6391 98.8008 78.5199 97.402C76.453 94.8198 73.5176 89.6507 73.5269 87.9314Z" fill="#9EE5C5"/>
<path fill-rule="evenodd" clip-rule="evenodd" d="M111.163 102.482C111.154 102.487 110.085 103.127 110.077 103.133C108.969 103.809 108.719 105.33 109.382 106.455C110.04 107.571 111.548 107.759 112.666 107.119C112.682 107.116 113.565 106.586 113.578 106.578C114.703 105.91 115.077 104.447 114.412 103.318C113.744 102.185 112.288 101.814 111.163 102.482Z" fill="#9EE5C5"/>
<path fill-rule="evenodd" clip-rule="evenodd" d="M129.829 87.5764C129.819 85.2131 126.722 84.5003 125.565 86.1786C124.84 87.2223 124.66 89.1196 122.09 92.6709C121.167 93.9522 120.33 95.1926 119.021 96.376C118.12 97.1923 116.954 97.9705 115.542 98.7672C113.391 99.9796 114.706 103.908 117.563 102.986C118.733 102.612 119.983 101.806 121.097 100.893C122.537 99.7177 123.717 98.4457 124.836 97.047C126.903 94.4657 129.838 89.2966 129.829 87.5764Z" fill="#9EE5C5"/>
</svg>
